<mxfile host="app.diagrams.net" agent="Mozilla/5.0 (Windows NT 10.0; Win64; x64) AppleWebKit/537.36 (KHTML, like Gecko) Chrome/130.0.0.0 Safari/537.36" version="24.8.3">
  <diagram name="Page-1" id="e7e014a7-5840-1c2e-5031-d8a46d1fe8dd">
    <mxGraphModel dx="441" dy="273" grid="1" gridSize="10" guides="1" tooltips="1" connect="1" arrows="1" fold="1" page="1" pageScale="1" pageWidth="1169" pageHeight="826" background="none" math="0" shadow="0">
      <root>
        <mxCell id="0" />
        <mxCell id="1" parent="0" />
        <mxCell id="2a2GFfot7UsGSGKsftgH-44" value="" style="ellipse;shape=startState;fillColor=#000000;strokeColor=#ff0000;" vertex="1" parent="1">
          <mxGeometry x="527.5" y="50" width="30" height="30" as="geometry" />
        </mxCell>
        <mxCell id="2a2GFfot7UsGSGKsftgH-45" value="Create Character Sheet" style="text;html=1;align=center;verticalAlign=middle;whiteSpace=wrap;rounded=0;" vertex="1" parent="1">
          <mxGeometry x="490" y="20" width="105" height="30" as="geometry" />
        </mxCell>
        <mxCell id="2a2GFfot7UsGSGKsftgH-46" value="" style="endArrow=classic;html=1;rounded=0;exitX=0.5;exitY=1;exitDx=0;exitDy=0;entryX=0.5;entryY=0;entryDx=0;entryDy=0;" edge="1" parent="1" source="2a2GFfot7UsGSGKsftgH-44" target="2a2GFfot7UsGSGKsftgH-47">
          <mxGeometry width="50" height="50" relative="1" as="geometry">
            <mxPoint x="595" y="90" as="sourcePoint" />
            <mxPoint x="543" y="100" as="targetPoint" />
          </mxGeometry>
        </mxCell>
        <mxCell id="2a2GFfot7UsGSGKsftgH-47" value="Il sistema mostra l&#39;opzione &quot;Create character sheet&quot;" style="rounded=0;whiteSpace=wrap;html=1;fillColor=none;" vertex="1" parent="1">
          <mxGeometry x="482.5" y="110" width="120" height="60" as="geometry" />
        </mxCell>
        <mxCell id="2a2GFfot7UsGSGKsftgH-48" value="" style="endArrow=classic;html=1;rounded=0;exitX=0.5;exitY=1;exitDx=0;exitDy=0;entryX=0.5;entryY=0;entryDx=0;entryDy=0;" edge="1" parent="1" source="2a2GFfot7UsGSGKsftgH-47" target="2a2GFfot7UsGSGKsftgH-49">
          <mxGeometry width="50" height="50" relative="1" as="geometry">
            <mxPoint x="553" y="90" as="sourcePoint" />
            <mxPoint x="540" y="200" as="targetPoint" />
            <Array as="points" />
          </mxGeometry>
        </mxCell>
        <mxCell id="2a2GFfot7UsGSGKsftgH-49" value="Il giocatore seleziona l &#39;opzione" style="rounded=0;whiteSpace=wrap;html=1;fillColor=none;" vertex="1" parent="1">
          <mxGeometry x="482.5" y="200" width="120" height="60" as="geometry" />
        </mxCell>
        <mxCell id="2a2GFfot7UsGSGKsftgH-51" value="" style="html=1;points=[];perimeter=orthogonalPerimeter;fillColor=strokeColor;rotation=90;" vertex="1" parent="1">
          <mxGeometry x="540" y="250" width="5" height="80" as="geometry" />
        </mxCell>
      </root>
    </mxGraphModel>
  </diagram>
</mxfile>
